<?xml version="1.0" encoding="UTF-8"?>
<svg width="496px" height="146px" viewBox="0 0 496 146" version="1.1" xmlns="http://www.w3.org/2000/svg" xmlns:xlink="http://www.w3.org/1999/xlink">
    <!-- Generator: Sketch 54 (76480) - https://sketchapp.com -->
    <title>威胁情报社区标志-大</title>
    <desc>Created with Sketch.</desc>
    <defs>
        <linearGradient x1="50.0049137%" y1="77.1236691%" x2="50.0049137%" y2="155.284739%" id="linearGradient-1">
            <stop stop-color="#202020" offset="0%"></stop>
            <stop stop-color="#4377C0" offset="100%"></stop>
        </linearGradient>
        <linearGradient x1="50.0049137%" y1="77.1236691%" x2="50.0049137%" y2="155.284739%" id="linearGradient-2">
            <stop stop-color="#202020" offset="0%"></stop>
            <stop stop-color="#4377C0" offset="100%"></stop>
        </linearGradient>
        <linearGradient x1="50.0049137%" y1="77.1236691%" x2="50.0049137%" y2="155.284739%" id="linearGradient-3">
            <stop stop-color="#202020" offset="0%"></stop>
            <stop stop-color="#4377C0" offset="100%"></stop>
        </linearGradient>
        <linearGradient x1="50.0049137%" y1="77.1236691%" x2="50.0049137%" y2="155.284739%" id="linearGradient-4">
            <stop stop-color="#202020" offset="0%"></stop>
            <stop stop-color="#4377C0" offset="100%"></stop>
        </linearGradient>
        <linearGradient x1="50.0049137%" y1="77.1236691%" x2="50.0049137%" y2="155.284739%" id="linearGradient-5">
            <stop stop-color="#202020" offset="0%"></stop>
            <stop stop-color="#4377C0" offset="100%"></stop>
        </linearGradient>
        <linearGradient x1="50.0049137%" y1="77.1236691%" x2="50.0049137%" y2="155.284739%" id="linearGradient-6">
            <stop stop-color="#202020" offset="0%"></stop>
            <stop stop-color="#4377C0" offset="100%"></stop>
        </linearGradient>
    </defs>
    <g id="页面1" stroke="none" stroke-width="1" fill="none" fill-rule="evenodd">
        <g id="首页" transform="translate(-360.000000, -180.000000)" fill-rule="nonzero">
            <g id="威胁情报社区标志-大" transform="translate(360.000000, 180.000000)">
                <g id="编组">
                    <path d="M97.5034483,66.0749767 L80.2517241,66.0749767 L80.2517241,48.8587907 C80.2517241,44.9109767 77.0448276,41.7066047 73.0862069,41.7066047 C69.1310345,41.7066047 65.9241379,44.9075349 65.9241379,48.8587907 L65.9241379,66.0749767 L48.6724138,66.0749767 C44.7172414,66.0749767 41.5068966,69.275907 41.5068966,73.2271628 C41.5068966,77.1784186 44.7137931,80.375907 48.6724138,80.375907 L65.9241379,80.375907 L65.9241379,97.5955349 C65.9241379,101.543349 69.1310345,104.744279 73.0862069,104.744279 C77.0413793,104.744279 80.2517241,101.543349 80.2517241,97.5955349 L80.2517241,80.375907 L97.5034483,80.375907 C101.458621,80.375907 104.665517,77.1784186 104.665517,73.2271628 C104.665517,69.275907 101.458621,66.0749767 97.5034483,66.0749767 Z" id="路径" fill="#398CFF"></path>
                    <g>
                        <path d="M196.355172,25.0652093 L159.327586,25.0548837 L159.327586,27.7326512 C159.327586,29.9388837 161.148276,31.7252093 163.393103,31.7252093 L196.275862,31.7252093 C201.351724,31.7252093 205.465517,35.7659535 205.465517,40.7532093 L205.465517,42.9422326 L205.465517,43.5032558 L204.886207,43.5101395 L163.896552,43.5101395 L163.896552,50.1804651 L204.882759,50.1804651 L205.451724,50.1804651 L205.462069,50.751814 L205.462069,54.1248372 C205.462069,59.0914419 201.365517,63.1184186 196.306897,63.1184186 L163.427586,63.1184186 C161.162069,63.1184186 159.327586,64.9219535 159.327586,67.1453953 L159.327586,69.792186 L196.155172,69.792186 C200.103448,69.792186 203.568966,68.3947907 206.603448,65.9166512 C210.441379,62.7811163 212.255172,57.7766512 212.255172,54.3175814 L212.251724,40.6843721 C212.251724,32.644186 205.12069,25.0652093 196.355172,25.0652093 Z" id="路径" fill="#398CFF"></path>
                        <path d="M258.896552,43.5135814 L225.593103,43.5135814 L225.024138,43.5135814 L225.024138,42.956 L225.024138,40.6981395 C225.024138,35.7453023 229.110345,31.7286512 234.151724,31.7286512 L266.237931,31.7286512 C268.493103,31.7286512 270.317241,29.9354419 270.317241,27.7188837 L270.317241,25.0548837 L234.151724,25.0548837 C225.358621,25.0548837 218.231034,32.0590698 218.231034,40.6946977 L218.231034,54.1523721 C218.231034,62.7914419 225.358621,69.792186 234.151724,69.792186 L258.896552,69.792186 C265.206897,69.792186 270.32069,64.7670698 270.32069,58.5682791 L270.32069,54.7340465 C270.32069,48.5386977 265.203448,43.5135814 258.896552,43.5135814 Z M263.527586,58.5717209 C263.527586,61.0808372 261.448276,63.1218605 258.893103,63.1218605 L234.148276,63.1218605 C229.117241,63.1218605 225.02069,59.0983256 225.02069,54.155814 L225.02069,50.7449302 L225.02069,50.183907 L225.589655,50.183907 L258.893103,50.183907 C261.448276,50.183907 263.527586,52.2283721 263.527586,54.7374884 L263.527586,58.5717209 Z" id="形状" fill="#398CFF"></path>
                        <path d="M328.306897,40.6912558 C328.306897,32.0693953 321.165517,25.0548837 312.386207,25.0548837 L292.196552,25.0548837 C283.417241,25.0548837 276.275862,32.0728372 276.275862,40.6912558 L276.275862,54.1523721 C276.275862,62.7776744 283.417241,69.792186 292.193103,69.792186 L312.382759,69.792186 C321.162069,69.792186 328.303448,62.7776744 328.303448,54.1523721 L328.303448,40.6912558 L328.306897,40.6912558 Z M321.513793,54.1523721 C321.513793,59.0983256 317.417241,63.1184186 312.386207,63.1184186 L292.196552,63.1184186 C287.165517,63.1184186 283.068966,59.0948837 283.068966,54.1523721 L283.068966,40.6912558 C283.068966,35.7453023 287.165517,31.7252093 292.196552,31.7252093 L312.386207,31.7252093 C317.42069,31.7252093 321.513793,35.7453023 321.513793,40.6912558 L321.513793,54.1523721 Z" id="形状" fill="#398CFF"></path>
                        <path d="M135.168966,35.9552558 C134.827586,35.3873488 134.47931,34.8263256 134.12069,34.2687442 C133.831034,33.8075349 133.524138,33.3566512 133.22069,32.9023256 C133.196552,32.8644651 133.168966,32.8300465 133.144828,32.7853023 C124.413793,19.8370233 111.582759,9.92102326 96.5,4.80986047 C96.437931,4.7892093 96.3758621,4.76511628 96.3103448,4.74102326 C95.8689655,4.59646512 95.4275862,4.44846512 94.9827586,4.3107907 C94.7034483,4.22474419 94.4206897,4.13525581 94.137931,4.05265116 C93.7689655,3.93906977 93.4,3.82893023 93.0275862,3.72223256 C92.3896552,3.53981395 91.7551724,3.37116279 91.1137931,3.20595349 C90.8724138,3.144 90.6310345,3.09237209 90.3931034,3.03386047 C89.8724138,2.90651163 89.3448276,2.78260465 88.8172414,2.6655814 C88.5965517,2.61739535 88.3758621,2.5692093 88.1551724,2.52446512 C86.662069,2.21125581 85.1517241,1.9427907 83.6275862,1.72251163 L83.1206897,1.65023256 C82.4586207,1.55730233 81.7896552,1.47469767 81.1206897,1.4024186 C80.9965517,1.38865116 80.8689655,1.37144186 80.7448276,1.36111628 C79.9862069,1.28195349 79.2275862,1.21655814 78.462069,1.15804651 C78.237931,1.14083721 78.0103448,1.13051163 77.7862069,1.11330233 C77.2655172,1.07888372 76.7448276,1.0547907 76.2172414,1.03413953 C75.8931034,1.02037209 75.5655172,1.00660465 75.237931,0.99627907 C74.8344828,0.982511628 74.4344828,0.979069767 74.0310345,0.972186047 C73.6931034,0.968744186 73.3586207,0.954976744 73.0206897,0.954976744 C71.7758621,0.954976744 70.5517241,1.00316279 69.3172414,1.03413953 C45.962069,2.23534884 25.5586207,14.491814 13.2068966,32.6545116 C13.1413793,32.7474419 13.0793103,32.8403721 13.0137931,32.9333023 C12.7344828,33.3532093 12.4551724,33.7696744 12.1827586,34.1964651 C12.1068966,34.3169302 12.0310345,34.4408372 11.9517241,34.5613023 C11.4896552,35.2909767 11.037931,36.0275349 10.6034483,36.7744186 C10.4931034,36.9602791 10.3793103,37.1495814 10.2724138,37.3423256 C10.0689655,37.6899535 9.87931034,38.0375814 9.6862069,38.3852093 C9.53448276,38.664 9.38275862,38.9427907 9.23448276,39.2215814 C9.06206897,39.5382326 8.88965517,39.8617674 8.72413793,40.1887442 C8.4862069,40.6499535 8.25517241,41.1146047 8.02413793,41.5792558 C7.95517241,41.7203721 7.87931034,41.8614884 7.81034483,42.0060465 L7.81034483,42.0094884 C3.27241379,51.4642791 0.724137931,62.048 0.724137931,73.2271628 C0.724137931,85.0499535 3.56896552,96.2015814 8.60689655,106.052186 C8.61034483,106.05907 8.60689655,106.069395 8.60689655,106.079721 C17.0793103,122.745209 31.837931,135.586791 49.7724138,141.651349 C49.8310345,141.672 49.8862069,141.692651 49.9448276,141.716744 C50.362069,141.854419 50.7793103,141.988651 51.2034483,142.122884 C51.5482759,142.22614 51.8931034,142.336279 52.2413793,142.439535 C52.5413793,142.529023 52.837931,142.618512 53.1413793,142.708 C53.837931,142.91107 54.5413793,143.09693 55.2482759,143.272465 C55.337931,143.3 55.4310345,143.317209 55.5206897,143.344744 C56.2413793,143.520279 56.9689655,143.692372 57.7,143.847256 C57.7551724,143.861023 57.8103448,143.871349 57.862069,143.885116 C62.7896552,144.941767 67.8965517,145.499349 73.1344828,145.499349 C74.0172414,145.499349 74.9,145.478698 75.7793103,145.444279 C76.1551724,145.433953 76.537931,145.423628 76.9137931,145.413302 C79.9793103,145.258419 82.9931034,144.897023 85.9448276,144.37386 C85.9482759,144.366977 85.9517241,144.366977 85.9551724,144.366977 C86.5448276,144.260279 87.1344828,144.15014 87.7172414,144.029674 C87.7275862,144.026233 87.7344828,144.026233 87.7448276,144.022791 C89.4172414,143.682047 91.0689655,143.279349 92.7,142.821581 C92.8655172,142.776837 93.0310345,142.732093 93.1931034,142.683907 C93.6655172,142.546233 94.1344828,142.408558 94.6068966,142.264 C94.7517241,142.215814 94.8965517,142.167628 95.0448276,142.122884 C95.8344828,141.87507 96.6172414,141.610047 97.3931034,141.334698 C97.6724138,141.238326 97.9517241,141.13507 98.2241379,141.031814 C98.5793103,140.907907 98.9310345,140.770233 99.2862069,140.632558 C99.6310345,140.505209 99.9724138,140.367535 100.310345,140.22986 C100.610345,140.109395 100.910345,139.98893 101.206897,139.868465 C101.817241,139.606884 102.42069,139.345302 103.02069,139.073395 C103.213793,138.987349 103.406897,138.894419 103.6,138.80493 C104.089655,138.581209 104.572414,138.347163 105.051724,138.113116 C105.237931,138.023628 105.424138,137.927256 105.610345,137.837767 C106.241379,137.517674 106.868966,137.19414 107.486207,136.863721 C107.489655,136.860279 107.493103,136.860279 107.496552,136.860279 C108.189655,136.481674 108.875862,136.092744 109.555172,135.69693 C109.586207,135.679721 109.617241,135.665953 109.648276,135.645302 C131.113793,123.099721 145.531034,99.8499535 145.531034,73.2340465 C145.531034,59.7109767 141.803448,47.0552558 135.327586,36.2340465 C135.275862,36.1342326 135.224138,36.0447442 135.168966,35.9552558 Z M116.006897,122.941395 C111.034483,125.495256 105.355172,127.467442 99.0448276,128.176465 C74.0344828,130.981581 57.6482759,121.736744 38.6517241,102.937302 C36.1482759,100.459163 31.9310345,97.8984186 29.9172414,97.1790698 C21.6448276,94.2190698 15.9724138,97.7986047 13.4655172,99.6675349 L13.462069,99.6709767 C13.4482759,99.6847442 13.3172414,99.7983256 13.1068966,100.008279 C9.42758621,91.8235349 7.36206897,82.7611163 7.36206897,73.2271628 C7.36206897,53.3332093 16.2862069,35.4906047 30.337931,23.4475349 C35.2862069,20.9212093 40.9241379,18.9696744 47.1793103,18.2675349 C72.1896552,15.4624186 88.5758621,24.7106977 107.572414,43.5066977 C110.075862,45.9848372 114.293103,48.5490233 116.306897,49.2683721 C124.57931,52.2214884 130.251724,48.6453953 132.758621,46.7764651 C132.762069,46.7730233 132.762069,46.7730233 132.765517,46.7695814 C132.77931,46.7626977 132.917241,46.631907 133.137931,46.4185116 C136.827586,54.6101395 138.896552,63.6794419 138.896552,73.2271628 C138.896552,93.0832558 130.006897,110.894884 116.006897,122.941395 Z" id="形状" fill="#398CFF"></path>
                        <g transform="translate(156.620690, 88.488372)" id="形状">
                            <path d="M3.12413793,47.532093 L3.12413793,42.3176744 C3.99655172,42.0595349 4.61724138,41.5983256 4.9862069,40.9340465 C5.32068966,40.3248372 5.48965517,39.4024186 5.48965517,38.1633488 L5.48965517,11.2514419 C5.48965517,8.90409302 6.16896552,7.04893023 7.54482759,5.68251163 C8.85862069,4.37116279 10.462069,3.7172093 12.3482759,3.7172093 L37.7241379,3.7172093 L37.2517241,0.251255814 L42.1413793,0.251255814 L42.6413793,3.68623256 L47.4448276,3.7172093 L47.4448276,0.585116279 L52.6103448,0.585116279 L52.6103448,3.7172093 L54.5310345,3.7172093 L54.5310345,8.84213953 L43.4206897,8.84213953 L45.7,25.6934884 C45.7689655,26.2304186 46.0586207,27.6071628 46.5586207,29.8237209 C48.0172414,26.2579535 48.9862069,22.3411163 49.4724138,18.0732093 L54.3344828,18.0732093 C53.7931034,21.4909767 53.3896552,23.8176744 53.1137931,25.0567442 C52.6103448,27.256093 51.9241379,29.352186 51.0551724,31.3450233 C50.5689655,32.4911628 49.737931,33.9505116 48.5551724,35.7230698 C49.4241379,37.4026977 50.4793103,38.8173023 51.7206897,39.9634419 C52.7931034,40.9787907 53.7482759,41.6224186 54.5827586,41.9012093 L54.5827586,47.5802791 C52.1931034,46.8781395 50.0344828,45.5461395 48.1103448,43.5911628 C47.237931,42.7203721 46.2,41.3367442 45.0034483,39.4333953 C43.3931034,40.7447442 41.5931034,41.9906977 39.6137931,43.1746977 L39.6137931,37.5747907 C41.262069,36.3563721 42.3655172,35.4339535 42.9172414,34.804093 C41.7862069,31.4379535 41.0724138,28.6603721 40.7827586,26.4610233 L38.4172414,8.83525581 L14.4275862,8.83525581 C13.2241379,8.83525581 12.4275862,8.96604651 12.0413793,9.22074419 C11.5413793,9.57525581 11.1827586,9.95386047 10.962069,10.36 C10.7413793,10.7833488 10.6241379,11.4854884 10.6241379,12.4629767 L10.6241379,37.3476279 C10.6241379,40.0666977 10.1931034,42.0973953 9.32068966,43.4431628 C7.83793103,45.8214884 5.77241379,47.1775814 3.12413793,47.532093 Z M12.5931034,16.7653023 L12.5931034,11.888186 L37.6103448,11.888186 L37.6103448,16.7653023 L12.5931034,16.7653023 Z M12.7068966,26.8258605 L12.7068966,21.6148837 L15.1206897,21.6148837 L15.1206897,18.9267907 L19.9275862,18.9267907 L19.9275862,21.6148837 L30.9206897,21.6148837 L30.9206897,18.9267907 L35.6965517,18.9267907 L35.6965517,21.6148837 L37.9448276,21.6148837 L37.9448276,26.8258605 L35.7793103,26.8258605 C35.7793103,28.1027907 35.6793103,29.255814 35.4724138,30.291814 C35.1413793,32.0471628 34.5551724,33.4789767 33.7241379,34.5872558 C33.0758621,35.4373953 31.9103448,36.5732093 30.2241379,37.9946977 L37.6931034,41.3505116 L37.6931034,46.3102326 L25.3655172,40.9891163 L13.2862069,46.3377674 L13.2862069,41.3505116 L20.6482759,38.0532093 C16.8689655,35.0209302 14.9827586,31.6857674 14.9827586,28.0477209 C14.9827586,27.7895814 15,27.3834419 15.037931,26.8293023 L12.7068966,26.8293023 L12.7068966,26.8258605 Z M30.9206897,26.8258605 L19.9275862,26.8258605 C19.8896552,27.7345116 19.8689655,28.2507907 19.8689655,28.3781395 C19.8689655,29.6894884 20.3965517,31.0111628 21.4517241,32.3397209 C22.4344828,33.596 23.7689655,34.6767442 25.4517241,35.5819535 C27.5586207,34.1226047 28.9482759,32.9282791 29.6137931,32.0058605 C30.4862069,30.8046512 30.9206897,29.4210233 30.9206897,27.848093 C30.9206897,27.5383256 30.9206897,27.1941395 30.9206897,26.8258605 Z" fill="url(#linearGradient-1)"></path>
                            <path d="M59.9103448,47.2257674 L59.9103448,41.8461395 C60.7793103,41.1267907 61.3068966,40.4625116 61.4931034,39.8533023 C61.6241379,39.3886512 61.6862069,38.5316279 61.6862069,37.2753488 L61.6862069,5.23506977 C61.6862069,3.8307907 62.1241379,2.66744186 62.9931034,1.7415814 C63.8827586,0.801953488 65.2793103,0.330418605 67.1862069,0.330418605 L72.5172414,0.330418605 C74.2758621,0.330418605 75.6068966,0.781302326 76.5172414,1.68995349 C77.4241379,2.59516279 77.8793103,3.75162791 77.8793103,5.15246512 L77.8793103,41.5432558 C77.8793103,43.536093 77.5241379,44.9506977 76.8206897,45.780186 C75.9310345,46.8540465 74.5655172,47.3875349 72.7137931,47.3875349 L69.5172414,47.3875349 L69.5172414,42.2626047 L71.6,42.2626047 C72.637931,42.2626047 73.1551724,41.7187907 73.1551724,40.6242791 L73.1551724,33.0315349 L66.4068966,33.0315349 L66.4068966,37.6333023 C66.4068966,40.3282791 65.8896552,42.4209302 64.8517241,43.8940465 C63.8137931,45.3602791 62.1689655,46.4651163 59.9103448,47.2257674 Z M66.4068966,14.159814 L73.1551724,14.159814 L73.1551724,6.59460465 C73.1551724,5.54139535 72.6551724,5.0147907 71.6517241,5.0147907 L68.0448276,5.0147907 C66.9517241,5.0147907 66.4034483,5.55860465 66.4034483,6.65311628 L66.4034483,14.159814 L66.4068966,14.159814 Z M66.4068966,27.9616744 L73.1551724,27.9616744 L73.1551724,19.288186 L66.4068966,19.288186 L66.4068966,27.9616744 Z M79.237931,36.4424186 L79.237931,29.3762791 C80.162069,27.5486512 80.737931,25.9585116 80.9586207,24.6093023 C81.5344828,21.3911628 81.8586207,18.2693953 81.9310345,15.2405581 L86.7344828,15.2405581 C86.3827586,20.8576744 85.8655172,24.8846512 85.1793103,27.3249302 C84.0655172,31.2968372 82.0862069,34.3394419 79.237931,36.4424186 Z M80.4551724,47.3909767 L80.4551724,42.2660465 C83.1413793,40.8824186 85.0965517,37.9706047 86.3137931,33.5374884 C87.2413793,30.192 87.8586207,25.703814 88.1724138,20.0660465 C88.4344828,15.3747907 88.6310345,12.111907 88.7586207,10.2842791 L80.9827586,10.2842791 L80.9827586,5.15590698 L89.0068966,5.15590698 L89.3655172,0.337302326 L94.5310345,0.337302326 L94.1724138,5.15590698 L97.1689655,5.15590698 C99.1896552,5.15590698 100.658621,5.59302326 101.582759,6.46037209 C102.544828,7.34837209 103.027586,8.74232558 103.027586,10.6456744 L103.027586,41.8495814 C103.027586,45.6012093 101.093103,47.4770233 97.2206897,47.4770233 L92.0275862,47.4770233 L92.0275862,42.4037209 L96.1689655,42.4037209 C96.8310345,42.4037209 97.3068966,42.2385116 97.5827586,41.9046512 C97.7689655,41.6981395 97.8586207,41.2747907 97.8586207,40.6277209 L97.8586207,12.0017674 C97.8586207,11.2996279 97.7517241,10.828093 97.5275862,10.5871628 C97.3068966,10.384093 96.9413793,10.2842791 96.4448276,10.2842791 L93.862069,10.2842791 L93.6655172,13.6917209 C93.0344828,23.3186047 92.5275862,29.1732093 92.1413793,31.2624186 C91.1586207,36.3253953 89.5275862,40.2663256 87.2517241,43.0955349 C85.4448276,45.3499535 83.1758621,46.7817674 80.4551724,47.3909767 Z M104.862069,5.15246512 L110,5.15246512 L110,38.1323721 C110.072414,38.8723721 110.155172,39.2991628 110.248276,39.4093023 C110.431034,39.6467907 110.782759,39.7947907 111.303448,39.8533023 L111.303448,44.9506977 C107.010345,44.7304186 104.862069,42.2144186 104.862069,37.4130233 L104.862069,5.15246512 Z" fill="url(#linearGradient-2)"></path>
                            <path d="M117.165517,46.4754419 L117.165517,1.19088372 L121.882759,1.19088372 L121.882759,46.4754419 L117.165517,46.4754419 Z M125.355172,47.532093 L125.355172,0.333860465 L130.489655,0.333860465 L130.489655,15.7155349 L134.406897,15.7155349 L134.406897,20.8714419 L130.489655,20.8714419 L130.489655,47.532093 L125.355172,47.532093 Z M135.962069,21.6424186 L135.962069,17.0991628 L149.734483,17.0991628 L149.734483,14.159814 L136.517241,14.159814 L136.517241,9.61655814 L149.734483,9.61655814 L149.734483,7.25888372 L136.517241,7.25888372 L136.517241,2.65711628 L149.734483,2.65711628 L149.734483,0.385488372 L154.731034,0.385488372 L154.731034,2.65711628 L167.865517,2.65711628 L167.865517,7.25888372 L154.731034,7.25888372 L154.731034,9.61655814 L167.865517,9.61655814 L167.865517,14.159814 L154.731034,14.159814 L154.731034,17.0991628 L168.389655,17.0991628 L168.389655,21.6424186 L135.962069,21.6424186 Z M136.241379,47.3634419 L136.241379,29.4313488 C136.241379,25.5695814 138.2,23.6386977 142.127586,23.6386977 L161.534483,23.6386977 C163.903448,23.6386977 165.617241,24.0930233 166.668966,24.9982326 C167.651724,25.8483721 168.141379,27.232 168.141379,29.156 L168.141379,41.1543256 C168.141379,43.0576744 167.727586,44.5445581 166.893103,45.6184186 C165.965517,46.7817674 164.672414,47.3634419 163.006897,47.3634419 L158.368966,47.3634419 L158.368966,43.5636279 L161.534483,43.5636279 C161.941379,43.5636279 162.303448,43.3984186 162.613793,43.0645581 C162.872414,42.7685581 163.003448,42.4243721 163.003448,42.0388837 L163.003448,41.1233488 L141.372414,41.1233488 L141.372414,47.36 L136.241379,47.36 L136.241379,47.3634419 Z M141.372414,30.5671628 L163.003448,30.5671628 L163.003448,30.0956279 C163.003448,28.8014884 162.234483,28.1578605 160.696552,28.1578605 L143.762069,28.1578605 C142.168966,28.1578605 141.372414,28.7223256 141.372414,29.847814 L141.372414,30.5671628 Z M141.372414,36.9414884 L163.003448,36.9414884 L163.003448,34.6698605 L141.372414,34.6698605 L141.372414,36.9414884 Z" fill="url(#linearGradient-3)"></path>
                            <path d="M173.724138,10.5045581 L173.724138,5.21097674 L181.555172,5.21097674 L181.555172,0.275348837 L186.689655,0.275348837 L186.689655,5.21097674 L191.410345,5.21097674 L191.410345,10.5045581 L186.689655,10.5045581 L186.689655,19.9834419 C188.113793,19.2606512 189.77931,18.6686512 191.686207,18.2074419 L191.686207,23.2807442 C190.131034,23.852093 188.465517,24.6850233 186.689655,25.776093 L186.689655,40.0460465 C186.689655,42.7444651 185.782759,44.7304186 183.968966,46.003907 C183.1,46.6337674 182.165517,47.039907 181.165517,47.2223256 C180.631034,47.3324651 179.62069,47.3875349 178.141379,47.3875349 L175.806897,47.3875349 L175.806897,42.204093 L177.610345,42.204093 C179.127586,42.204093 180.155172,41.9459535 180.693103,41.4296744 C181.265517,40.8755349 181.555172,39.9772093 181.555172,38.7415814 L181.555172,28.9288372 C179.055172,30.1300465 176.448276,30.8597209 173.724138,31.1178605 L173.724138,25.7692093 C175.444828,25.5489302 176.82069,25.2529302 177.858621,24.8812093 C178.765517,24.5473488 179.996552,23.9484651 181.551724,23.0811163 L181.551724,10.5011163 L173.724138,10.5011163 L173.724138,10.5045581 Z M193.934483,47.4185116 L193.934483,8.39469767 C193.934483,6.65655814 194.058621,5.33144186 194.306897,4.41934884 C194.558621,3.50381395 195.006897,2.72595349 195.655172,2.07544186 C196.875862,0.874232558 198.386207,0.275348837 200.182759,0.275348837 L218.368966,0.275348837 C220.406897,0.275348837 221.893103,0.767534884 222.837931,1.74502326 C223.748276,2.67088372 224.203448,3.64148837 224.203448,4.65683721 L224.203448,10.0364651 C224.203448,12.9895814 223.982759,14.7827907 223.537931,15.4126512 C222.462069,16.9098605 221.203448,17.6567442 219.758621,17.6567442 L207.265517,17.6567442 L207.265517,12.5283721 L216.624138,12.5283721 C217.641379,12.5283721 218.306897,12.3700465 218.62069,12.0533953 C218.917241,11.7608372 219.065517,11.1585116 219.065517,10.2567442 L219.065517,7.78893023 C219.065517,6.86306977 218.917241,6.25386047 218.62069,5.96130233 C218.268966,5.62744186 217.768966,5.4587907 217.12069,5.4587907 L202.182759,5.4587907 C200.106897,5.4587907 199.072414,6.23665116 199.072414,7.78893023 L199.072414,20.8404651 L216.927586,20.8404651 C219.558621,20.8404651 221.289655,21.0366512 222.12069,21.4221395 C223.231034,21.9384186 224.062069,22.7541395 224.62069,23.8624186 C225.027586,24.6746977 225.234483,25.5317209 225.234483,26.4403721 C225.234483,28.8221395 222.651724,33.0453023 217.486207,39.1064186 C219.968966,40.3626977 222.558621,41.4055814 225.262069,42.2385116 L225.262069,47.4219535 C222.727586,46.867814 220.762069,46.3549767 219.375862,45.8972093 C217.506897,45.2673488 215.32069,44.2623256 212.824138,42.8752558 C210.510345,44.1900465 208.5,45.14 206.8,45.732 C205.334483,46.2448372 203.237931,46.8093023 200.496552,47.4219535 L200.496552,42.0939535 C203.458621,41.3367442 206.068966,40.4349767 208.327586,39.3783256 C206.586207,37.4577674 205.272414,35.7850233 204.382759,34.3635349 C203.662069,33.2380465 202.82069,31.6375814 201.858621,29.5690233 L207.634483,29.5690233 C208.837931,31.4895814 209.751724,32.8353488 210.382759,33.6132093 C210.958621,34.3153488 211.827586,35.1379535 212.993103,36.0810233 C215.272414,33.6235349 216.944828,31.5377674 218.02069,29.8202791 C219.02069,28.2129302 219.531034,27.2044651 219.544828,26.7983256 C219.565517,26.2820465 219.186207,26.0204651 218.406897,26.0204651 L216.52069,26.048 L199.07931,26.048 L199.07931,47.4185116 L193.934483,47.4185116 L193.934483,47.4185116 Z" fill="url(#linearGradient-4)"></path>
                            <path d="M253.662069,5.34865116 L253.662069,0.471534884 L258.882759,0.471534884 L258.882759,5.34865116 L272.237931,5.34865116 C275.068966,5.34865116 277.244828,5.91311628 278.765517,7.03860465 C280.724138,8.51860465 281.710345,10.532093 281.710345,13.0825116 L281.67931,33.8954419 C281.67931,36.3701395 281.17931,38.2666047 280.17931,39.5745116 C278.624138,41.6258605 276.32069,42.6515349 273.265517,42.6515349 L258.882759,42.6515349 L258.910345,47.4735814 L253.665517,47.4460465 L253.665517,42.648093 L240.475862,42.648093 C237.813793,42.648093 235.831034,42.2729302 234.534483,41.5122791 C232.182759,40.1493023 231.010345,37.5506977 231.010345,33.7233488 L231.010345,14.1322791 C231.010345,11.2858605 231.731034,9.15190698 233.175862,7.7304186 C234.786207,6.14027907 236.962069,5.34865116 239.7,5.34865116 L253.662069,5.34865116 L253.662069,5.34865116 Z M253.662069,37.4405581 L253.662069,10.556186 L239.527586,10.556186 C238.213793,10.556186 237.3,10.9106977 236.77931,11.6128372 C236.410345,12.1256744 236.224138,12.9413953 236.224138,14.0496744 L236.224138,33.3137674 C236.224138,34.5666047 236.268966,35.3169302 236.362069,35.5578605 C236.824138,36.8313488 237.844828,37.468093 239.417241,37.468093 L253.662069,37.4405581 Z M258.87931,37.4405581 L272.317241,37.468093 C275.093103,37.4887442 276.47931,36.3253953 276.47931,33.9780465 L276.47931,14.4386047 C276.47931,12.8484651 276.165517,11.8021395 275.537931,11.3065116 C274.944828,10.8418605 273.944828,10.6043721 272.541379,10.5837209 L258.87931,10.5286512 L258.87931,37.4405581 Z" fill="url(#linearGradient-5)"></path>
                            <path d="M287.47931,47.3634419 L287.47931,42.3176744 C288.327586,42.0595349 288.941379,41.6637209 289.310345,41.1267907 C289.844828,40.3489302 290.141379,39.1890233 290.2,37.6333023 L291.448276,1.55227907 L296.641379,1.55227907 L295.310345,37.2753488 C295.065517,44.0007442 292.458621,47.3634419 287.47931,47.3634419 Z M301.334483,0.499069767 L306.468966,0.499069767 L306.468966,39.0203721 C306.468966,41.2197209 307.544828,42.3176744 309.693103,42.3176744 L327.213793,42.3176744 L327.213793,47.4460465 L308.665517,47.4460465 C306.241379,47.4460465 304.324138,46.6062326 302.917241,44.9231628 C301.862069,43.6703256 301.334483,41.9700465 301.334483,39.8257674 L301.334483,0.499069767 Z M312.744828,0.137674419 L317.851724,0.137674419 L320.265517,29.6 C320.451724,32.0368372 321.710345,33.2586977 324.044828,33.2586977 L324.072414,38.4146047 C321.665517,38.3423256 319.610345,37.4887442 317.910345,35.864186 C316.258621,34.311907 315.327586,32.215814 315.106897,29.575907 L312.744828,0.137674419 Z M329.655172,1.55227907 L334.82069,1.55227907 L336.013793,36.359814 C336.086207,38.7794419 336.451724,40.4349767 337.096552,41.3195349 C337.558621,41.9459535 338.124138,42.2591628 338.789655,42.2591628 L338.789655,47.3565581 C336.67931,47.1913488 335.106897,46.7026047 334.068966,45.8868837 C332.127586,44.3724651 331.082759,41.3780465 330.934483,36.9105116 L329.655172,1.55227907 Z" fill="url(#linearGradient-6)"></path>
                        </g>
                    </g>
                </g>
            </g>
        </g>
    </g>
</svg>