<?xml version="1.0" encoding="utf-8"?>
<!-- Generator: Adobe Illustrator 24.1.0, SVG Export Plug-In . SVG Version: 6.00 Build 0)  -->
<svg version="1.1" id="图层_1" xmlns="http://www.w3.org/2000/svg" xmlns:xlink="http://www.w3.org/1999/xlink" x="0px" y="0px"
	 viewBox="0 0 149 36" style="enable-background:new 0 0 149 36;" xml:space="preserve">
<style type="text/css">
	.st0{fill:#008CFF;}
	.st1{fill:#98A5B0;}
	.st2{fill:#68727A;}
	.st3{fill:#303133;}
	.st4{fill-rule:evenodd;clip-rule:evenodd;fill:#008CFF;}
</style>
<g>
	<path class="st0" d="M4.53,18.11l8.7-9.7c0.7-0.8,0.7-2-0.1-2.8l0,0c-0.8-0.7-2-0.7-2.8,0.1l-9.8,11.1c-0.7,0.8-0.7,1.9,0,2.7
		l9.8,10.9c0.7,0.8,2,0.9,2.8,0.1c0.8-0.7,0.9-2,0.1-2.8l0,0L4.53,18.11z"/>
	<path class="st0" d="M72.13,16.81l-9.8-10.9c-0.7-0.8-2-0.9-2.8-0.1l0,0c-0.8,0.7-0.9,2-0.1,2.8l8.7,9.7l-8.7,9.7
		c-0.7,0.8-0.7,2,0.1,2.8l0,0c0.8,0.7,2,0.7,2.8-0.1l9.8-10.9C72.83,18.71,72.83,17.61,72.13,16.81z"/>
	<circle class="st0" cx="36.33" cy="18.01" r="6.5"/>
	<path class="st1" d="M29.43,4.81c5.8-3,12.9-1.9,17.4,2.8l2.3-2.2c-5.7-5.8-14.6-7.1-21.6-3.1C28.43,2.91,29.13,3.81,29.43,4.81z"
		/>
	<path class="st1" d="M50.63,14.11c0.7,2.5,0.7,5.1,0,7.6c1,0.4,2,0.9,2.8,1.7c1.1-3.6,1.1-7.4,0-10.9
		C52.63,13.21,51.63,13.81,50.63,14.11z"/>
	<path class="st1" d="M23.73,30.81l2.2-2.2c-4.7-4.5-5.8-11.6-2.8-17.4c-1-0.4-1.9-1.1-2.5-2C16.63,16.21,17.93,25.11,23.73,30.81
		L23.73,30.81z"/>
	<path class="st1" d="M40.33,32.21c-2.6,0.8-5.4,0.8-8,0.1c-0.4,1-1,2-1.7,2.8c3.7,1.2,7.7,1.2,11.4-0.1
		C41.33,34.21,40.73,33.21,40.33,32.21z"/>
	<circle class="st2" cx="47.93" cy="6.51" r="4.9"/>
	<path class="st2" d="M24.83,4.01c1.4,0,2.5,1.1,2.5,2.5s-1.1,2.5-2.5,2.5c-1.4,0-2.5-1.1-2.5-2.5l0,0
		C22.33,5.11,23.43,4.01,24.83,4.01 M24.83,1.61c-2.7,0-4.9,2.2-4.9,4.9c0,2.7,2.2,4.9,4.9,4.9s4.9-2.2,4.9-4.9l0,0
		C29.73,3.81,27.53,1.61,24.83,1.61z"/>
	<path class="st2" d="M47.93,26.91c1.4,0,2.5,1.1,2.5,2.5c0,1.4-1.1,2.5-2.5,2.5s-2.5-1.1-2.5-2.5
		C45.53,28.01,46.63,26.91,47.93,26.91 M47.93,24.51c-2.7,0-4.9,2.2-4.9,4.9s2.2,4.9,4.9,4.9c2.7,0,5-2.2,5-4.9l0,0
		C52.93,26.71,50.73,24.51,47.93,24.51z"/>
	<circle class="st2" cx="24.83" cy="29.41" r="4.9"/>
	<g>
		<path class="st3" d="M89.33,27.81c-0.3,1.6-0.8,3.2-1.7,4.5c0.3,0.8,0.6,1.4,1,1.4c0.2,0,0.4-0.6,0.4-2c0.2,0.2,0.5,0.4,0.8,0.6
			c-0.2,2-0.5,2.5-1.4,2.5c-0.6,0-1.2-0.5-1.6-1.5c-0.5,0.5-1.1,1.1-1.7,1.5c-0.2-0.3-0.5-0.5-0.7-0.7c0.8-0.4,1.5-1.1,2-1.8
			c-0.4-1.8-0.6-3.7-0.7-5.6h-5v2.3c0,1.7-0.2,4.2-1.2,5.8c-0.2-0.2-0.5-0.5-0.8-0.6c0.7-1.6,1.1-3.4,1-5.1v-3.4h5.9
			c0-0.5,0-1.1,0-1.6h1.1c0,0.5,0,1.1,0,1.6h1.9c-0.4-0.4-1-0.7-1.5-1.1l0.6-0.6c0.5,0.3,1.2,0.6,1.6,1.1l-0.5,0.6h0.8v1h-2.9
			c0,1.5,0.2,2.9,0.4,4.2c0.5-1.1,0.8-2.1,1.1-3.3L89.33,27.81z M84.93,33.61c-0.3-0.2-0.7-0.5-1.1-0.7c-0.6,0.6-1.5,1.1-2.3,1.4
			c-0.1-0.3-0.3-0.5-0.5-0.7c0.7-0.2,1.4-0.5,2-1.1c-0.5-0.3-1.2-0.5-1.7-0.7c0.2-0.4,0.5-0.8,0.7-1.4h-0.8v-0.8h1.2
			c0.1-0.4,0.3-0.7,0.4-1.2h-1.5v-0.8h4.1v0.8h-1.7c-0.1,0.3-0.2,0.7-0.4,1.2h1.5h0.1l0.6,0.2c-0.2,1-0.6,1.8-1.2,2.5
			c0.4,0.2,0.7,0.4,1.1,0.6L84.93,33.61z M83.03,30.31c-0.1,0.3-0.3,0.6-0.4,1c0.3,0.1,0.7,0.3,1.1,0.5c0.3-0.4,0.6-1,0.8-1.5H83.03
			z"/>
		<path class="st3" d="M96.43,28.51c-0.2,1.2-0.5,2.3-1.2,3.5c-0.2-0.2-0.4-0.3-0.7-0.5v2.1c0,0.5-0.1,0.7-0.3,1
			c-0.4,0.2-1,0.2-1.4,0.2c0-0.3-0.1-0.6-0.3-1c0.4,0,0.7,0,1,0c0.1,0,0.2,0,0.2-0.2v-2.6h-1.4c0,1.4-0.3,2.6-0.7,3.9
			c-0.2-0.2-0.5-0.3-0.8-0.4c0.6-1.8,0.8-3.7,0.7-5.7v-4.1h3.1v6.9c0.5-1,0.8-2,1-3.1L96.43,28.51L96.43,28.51z M93.53,29.91v-1.7
			h-1.2v0.5c0,0.3,0,0.7,0,1.2H93.53z M92.33,25.51v1.7h1.2v-1.7H92.33z M100.73,31.91c-0.2-1.2-0.4-2.2-0.7-3.3
			c-0.1,3.7-0.2,5.1-0.5,5.5c-0.2,0.3-0.4,0.4-0.8,0.5c-0.4,0-0.8,0.1-1.4,0c0-0.3-0.1-0.7-0.3-1c0.4,0,0.7,0,1.2,0
			c0.1,0,0.3-0.1,0.4-0.2c0.2-0.3,0.4-1.9,0.4-6.3h-1.1c0,2.4-0.3,5.4-2.3,7.8c-0.2-0.2-0.5-0.5-0.8-0.6c1.6-2,2.3-4.5,2.2-7.1h-1.7
			v-1h1.7v-2h1v2h2.1c0,0,0,0.3,0,0.5c0,0.7,0,1.4,0,1.9l0.8-0.2c0.3,1.1,0.6,2.2,0.8,3.3L100.73,31.91z"/>
		<path class="st3" d="M102.43,29.31c0.3-1,0.4-2,0.5-3.1l0.7,0.1c0,1.1-0.2,2.1-0.4,3.2L102.43,29.31z M105.43,27.61
			c-0.2-0.5-0.3-1.1-0.6-1.7v8.8h-1v-10.7h1v1.9l0.6-0.3c0.3,0.5,0.5,1.1,0.6,1.7L105.43,27.61z M113.33,27.81v0.8h-7.6v-0.8h3.2
			v-0.6h-2.6v-0.7h2.5v-0.6h-2.9v-0.8h2.9v-0.8h1.1v0.8h3v0.8h-3v0.6h2.6v0.7h-2.6v0.6H113.33z M112.43,33.71c0,0.5-0.1,0.7-0.4,1
			c-0.5,0.1-1.2,0.2-1.7,0.2c-0.1-0.3-0.2-0.6-0.3-1c0.5,0,1.1,0,1.3,0s0.2-0.1,0.2-0.2v-0.6h-4v1.8h-1.1v-5.7h5.9L112.43,33.71z
			 M107.43,30.01v0.7h3.9v-0.7H107.43z M111.43,32.21v-0.7h-3.9v0.7H111.43z"/>
		<path class="st3" d="M118.33,30.11l-1.4,0.4v3.1c0,0.6-0.1,1-0.5,1.1c-0.6,0.2-1.3,0.2-1.9,0.2c-0.1-0.3-0.2-0.7-0.3-1.1
			c0.6,0,1.2,0,1.4,0c0.2,0,0.2-0.1,0.2-0.2v-2.7c-0.5,0.1-1.1,0.3-1.5,0.4l-0.2-1.2c0.5-0.1,1.1-0.3,1.7-0.4v-2.3h-1.6v-1.1h1.6
			v-2.3h1.2v2.3h1.3v1.1h-1.3v2c0.4-0.1,0.8-0.2,1.2-0.3L118.33,30.11z M124.74,28.61c-0.2,1.4-0.7,2.7-1.6,3.9
			c0.5,0.5,1.3,1.1,2,1.4c-0.3,0.3-0.5,0.6-0.7,1c-0.7-0.3-1.4-0.8-1.9-1.4c-0.5,0.6-1.3,1.1-1.9,1.5c-0.2-0.3-0.4-0.5-0.6-0.7v0.7
			h-1.1v-10.4h5.7c0,0,0,0.3,0,0.4c-0.1,1.7-0.2,2.3-0.4,2.6c-0.2,0.2-0.6,0.3-1,0.3s-1.1,0-1.9,0c0-0.3-0.1-0.6-0.3-1
			c0.7,0.1,1.5,0.1,1.7,0.1c0.2,0,0.3,0,0.4-0.1c0.1-0.1,0.2-0.5,0.2-1.4h-3.5v3h4h0.2L124.74,28.61L124.74,28.61L124.74,28.61z
			 M119.84,34.01c0.7-0.3,1.4-0.8,1.9-1.4c-0.7-1-1.3-2-1.7-3.2h-0.2V34.01z M121.14,29.41c0.3,0.8,0.7,1.6,1.3,2.3
			c0.5-0.7,0.8-1.5,1.1-2.3H121.14z"/>
		<path class="st3" d="M136.24,26.11v5.6h-1.2v-0.6h-3.1v3.7h-1.2v-3.7h-3.1v0.7h-1.1v-5.7h4.1v-2h1.2v2H136.24z M130.84,30.01v-2.9
			h-3.1v2.9H130.84z M135.04,30.01v-2.9h-3.1v2.9H135.04z"/>
		<path class="st3" d="M139.94,28.31c-0.2,1.6-0.5,3.2-1,4.8l-1.1-0.4c0.5-1.5,0.8-3,1-4.4H139.94z M141.94,27.31v5.6
			c0,0.5,0.1,0.6,0.7,0.6h2c0.6,0,0.7-0.4,0.8-2.3c0.3,0.2,0.6,0.4,1.1,0.4c-0.1,2.2-0.4,2.9-1.8,2.9h-2.2c-1.4,0-1.8-0.4-1.8-1.7
			v-5.6L141.94,27.31z M142.04,24.41c1.2,0.7,2.2,1.6,3.2,2.5l-0.8,0.8c-1-1-2-1.9-3.2-2.6L142.04,24.41z M147.14,27.81
			c0.6,1.4,1.2,2.9,1.6,4.3l-1.1,0.4c-0.3-1.5-0.8-3.1-1.5-4.4L147.14,27.81z"/>
	</g>
	<g>
		<g>
			<polygon class="st4" points="107.53,5.61 120.44,5.61 120.44,7.61 124.04,7.61 124.04,5.61 124.04,3.91 124.04,3.51 115.83,3.51 
				115.83,1.51 112.13,1.51 112.13,3.51 103.93,3.51 103.93,3.91 103.93,5.61 103.93,7.61 107.53,7.61 			"/>
			<path class="st4" d="M118.33,16.01c1.1-1.3,2-2.9,2.6-5h3.5v-2.1h-10.8c0.4-0.9,0.7-1.8,1-2.7h-3.5c-0.4,0.8-0.8,1.7-1.2,2.7
				h-6.4v2.1h5.3c-0.7,1.3-1.5,2.6-2.3,3.6c1.5,0.4,3.3,1.1,5.2,1.8c-2.1,0.9-4.6,1.4-7,1.6l1.4,3.2c3.9-0.6,7.1-1.4,9.6-3
				c2,1,3.8,2.1,5,3.2l3.3-2C122.34,18.11,120.44,16.91,118.33,16.01z M111.03,13.61c0.6-0.8,1.1-1.7,1.6-2.6h4.5
				c-0.5,1.5-1.4,2.6-2.5,3.6C113.53,14.21,112.23,13.91,111.03,13.61z"/>
			<path class="st4" d="M98.23,6.81c-1.5-0.6-3.9-1.4-5.8-1.8c2.2,0,4.6,0,7.3,0v-2.2c-3.3,0-6.1,0-9,0c0.1-0.5,0.3-1.1,0.4-1.7
				h-3.6c-0.1,0.6-0.2,1.2-0.4,1.7c-2.3,0-4.8,0-7.5,0v2.2c1,0,3,0,5.9,0c-1.3,1-3.1,1.5-5.2,1.8l1.4,2c-0.9,0-1.9,0-2.8,0v2.2h15.4
				v6c0,1.2-0.1,1.6-1.4,1.7l-1.2,0.1v-6.8h-10.8v7h10.6l1,3l3-0.2c2.4-0.2,2.6-1.8,2.6-3.6v-7.1h2.2v-2.2c-1.1,0-2.2,0-3.3,0
				L98.23,6.81z M88.63,16.91h-4.5v-2.6h4.5V16.91z M84.33,8.91c1.9-0.5,3.4-1.3,4.5-2.4c2.1,0.7,4.5,1.5,6.4,2.4
				C91.53,8.91,87.93,8.91,84.33,8.91z"/>
			<polygon id="XMLID_14_" class="st4" points="143.24,3.81 143.24,1.51 139.64,1.51 139.64,3.81 134.04,3.81 134.04,5.71 
				148.64,5.71 148.64,3.81 			"/>
			<rect id="XMLID_13_" x="135.24" y="7.01" class="st4" width="12.1" height="1.9"/>
			<rect id="XMLID_12_" x="135.24" y="10.41" class="st4" width="12.1" height="1.9"/>
			<path id="XMLID_9_" class="st4" d="M135.04,20.71h12.7v-6.9h-12.7V20.71z M138.54,15.61h5.6v3.2h-5.6V15.61z"/>
			<path id="XMLID_8_" class="st4" d="M129.84,21.21h3.5V5.01c0.6-1.1,1-2.3,1.2-3.4h-3.4c-0.5,1.8-2.4,4.2-4.6,5.4l1.5,3.3
				c0.6-0.3,1.1-0.7,1.7-1.1L129.84,21.21z"/>
		</g>
	</g>
</g>
</svg>
